<mxfile host="Electron" modified="2024-09-17T10:14:11.552Z" agent="Mozilla/5.0 (Windows NT 10.0; Win64; x64) AppleWebKit/537.36 (KHTML, like Gecko) draw.io/21.6.1 Chrome/112.0.5615.204 Electron/24.6.1 Safari/537.36" etag="3AMXbs_vkBXkyd5g3_3g" version="21.6.1" type="device">
  <diagram name="Seite-1" id="XlhNs0TyI_9xgu4hfG8v">
    <mxGraphModel dx="2525" dy="868" grid="1" gridSize="10" guides="1" tooltips="1" connect="1" arrows="1" fold="1" page="1" pageScale="1" pageWidth="1169" pageHeight="827" math="0" shadow="0">
      <root>
        <mxCell id="0" />
        <mxCell id="4QULH8YT1BLBHV-vifYP-7" value="Areas" parent="0" />
        <mxCell id="0Ak9JN9doW7q2pLoQ9mv-4" value="Bestellung" style="rounded=0;whiteSpace=wrap;html=1;strokeWidth=2;dashed=1;strokeColor=#B5B5B5;fillColor=none;verticalAlign=top;align=right;fontColor=#B5B5B5;" parent="4QULH8YT1BLBHV-vifYP-7" vertex="1">
          <mxGeometry x="230" y="390" width="620" height="130" as="geometry" />
        </mxCell>
        <mxCell id="WFWKLnwmdb4rRaIEOqVZ-2" value="Text" style="text;html=1;strokeColor=none;fillColor=none;align=center;verticalAlign=middle;whiteSpace=wrap;rounded=0;" parent="4QULH8YT1BLBHV-vifYP-7" vertex="1">
          <mxGeometry x="340" y="570" width="60" height="30" as="geometry" />
        </mxCell>
        <mxCell id="WFWKLnwmdb4rRaIEOqVZ-3" value="Raw Vault &quot;willibald Shop&quot;: rvlt_willibald_shop (rwsp)" style="text;html=1;strokeColor=none;fillColor=none;align=center;verticalAlign=middle;whiteSpace=wrap;rounded=0;fontStyle=1" parent="4QULH8YT1BLBHV-vifYP-7" vertex="1">
          <mxGeometry x="40" y="20" width="330" height="30" as="geometry" />
        </mxCell>
        <mxCell id="WFWKLnwmdb4rRaIEOqVZ-11" value="lieferung" style="rounded=0;whiteSpace=wrap;html=1;strokeWidth=2;dashed=1;strokeColor=#B5B5B5;fillColor=none;verticalAlign=top;align=right;fontColor=#B5B5B5;" parent="4QULH8YT1BLBHV-vifYP-7" vertex="1">
          <mxGeometry x="-210" y="450" width="180" height="130" as="geometry" />
        </mxCell>
        <mxCell id="WFWKLnwmdb4rRaIEOqVZ-15" value="lieferdienst" style="rounded=0;whiteSpace=wrap;html=1;strokeWidth=2;dashed=1;strokeColor=#B5B5B5;fillColor=none;verticalAlign=top;align=left;fontColor=#B5B5B5;" parent="4QULH8YT1BLBHV-vifYP-7" vertex="1">
          <mxGeometry x="470" y="270" width="140" height="70" as="geometry" />
        </mxCell>
        <mxCell id="WFWKLnwmdb4rRaIEOqVZ-31" value="kategorie" style="rounded=0;whiteSpace=wrap;html=1;strokeWidth=2;dashed=1;strokeColor=#B5B5B5;fillColor=none;verticalAlign=top;align=right;fontColor=#B5B5B5;" parent="4QULH8YT1BLBHV-vifYP-7" vertex="1">
          <mxGeometry x="910" y="690" width="380" height="110" as="geometry" />
        </mxCell>
        <mxCell id="WFWKLnwmdb4rRaIEOqVZ-35" value="produkt" style="rounded=0;whiteSpace=wrap;html=1;strokeWidth=2;dashed=1;strokeColor=#B5B5B5;fillColor=none;verticalAlign=top;align=left;fontColor=#B5B5B5;" parent="4QULH8YT1BLBHV-vifYP-7" vertex="1">
          <mxGeometry x="470" y="690" width="380" height="110" as="geometry" />
        </mxCell>
        <mxCell id="WFWKLnwmdb4rRaIEOqVZ-41" value="lieferadresse" style="rounded=0;whiteSpace=wrap;html=1;strokeWidth=2;dashed=1;strokeColor=#B5B5B5;fillColor=none;verticalAlign=top;align=left;fontColor=#B5B5B5;" parent="4QULH8YT1BLBHV-vifYP-7" vertex="1">
          <mxGeometry x="470" y="550" width="380" height="130" as="geometry" />
        </mxCell>
        <mxCell id="WFWKLnwmdb4rRaIEOqVZ-47" value="Kunde" style="rounded=0;whiteSpace=wrap;html=1;strokeWidth=2;dashed=1;strokeColor=#B5B5B5;fillColor=none;verticalAlign=top;align=left;fontColor=#B5B5B5;" parent="4QULH8YT1BLBHV-vifYP-7" vertex="1">
          <mxGeometry x="870" y="390" width="420" height="130" as="geometry" />
        </mxCell>
        <mxCell id="WFWKLnwmdb4rRaIEOqVZ-61" value="Wohnort" style="rounded=0;whiteSpace=wrap;html=1;strokeWidth=2;dashed=1;strokeColor=#B5B5B5;fillColor=none;verticalAlign=top;align=left;fontColor=#B5B5B5;" parent="4QULH8YT1BLBHV-vifYP-7" vertex="1">
          <mxGeometry x="870" y="310" width="180" height="70" as="geometry" />
        </mxCell>
        <mxCell id="WFWKLnwmdb4rRaIEOqVZ-62" value="Vereinspartner" style="rounded=0;whiteSpace=wrap;html=1;strokeWidth=2;dashed=1;strokeColor=#B5B5B5;fillColor=none;verticalAlign=top;align=right;fontColor=#B5B5B5;" parent="4QULH8YT1BLBHV-vifYP-7" vertex="1">
          <mxGeometry x="1110" y="250" width="380" height="130" as="geometry" />
        </mxCell>
        <mxCell id="04NFRgAmzPecM27d5ohU-3" value="Position" style="rounded=0;whiteSpace=wrap;html=1;strokeWidth=2;dashed=1;strokeColor=#B5B5B5;fillColor=none;verticalAlign=top;align=left;fontColor=#B5B5B5;" vertex="1" parent="4QULH8YT1BLBHV-vifYP-7">
          <mxGeometry x="20" y="550" width="440" height="130" as="geometry" />
        </mxCell>
        <mxCell id="1" value="Main Model" parent="0" />
        <mxCell id="0Ak9JN9doW7q2pLoQ9mv-29" style="edgeStyle=orthogonalEdgeStyle;shape=connector;rounded=1;jumpStyle=none;orthogonalLoop=1;jettySize=auto;html=1;labelBackgroundColor=default;strokeColor=default;strokeWidth=2;fontFamily=Helvetica;fontSize=11;fontColor=default;endArrow=none;endFill=0;opacity=40;" parent="1" source="4QULH8YT1BLBHV-vifYP-1" target="0Ak9JN9doW7q2pLoQ9mv-27" edge="1">
          <mxGeometry relative="1" as="geometry" />
        </mxCell>
        <mxCell id="4QULH8YT1BLBHV-vifYP-1" value="bestellung&lt;br style=&quot;font-size: 13px;&quot;&gt;(BestellungID)" style="strokeWidth=2;html=1;shape=mxgraph.flowchart.start_1;whiteSpace=wrap;strokeColor=none;fontColor=#ffffff;fillColor=#002C82;fontFamily=Helvetica;fontSize=13;fontStyle=1" parent="1" vertex="1">
          <mxGeometry x="480" y="450" width="120" height="60" as="geometry" />
        </mxCell>
        <mxCell id="4QULH8YT1BLBHV-vifYP-2" value="bestellung" style="rounded=1;whiteSpace=wrap;html=1;strokeColor=#36393d;fillColor=#FFF3A8;strokeWidth=2;" parent="1" vertex="1">
          <mxGeometry x="480" y="410" width="120" height="30" as="geometry" />
        </mxCell>
        <mxCell id="4QULH8YT1BLBHV-vifYP-4" style="rounded=1;orthogonalLoop=1;jettySize=auto;html=1;endArrow=none;endFill=0;jumpStyle=none;strokeWidth=1;" parent="1" source="4QULH8YT1BLBHV-vifYP-2" target="4QULH8YT1BLBHV-vifYP-1" edge="1">
          <mxGeometry relative="1" as="geometry">
            <mxPoint x="290" y="120" as="sourcePoint" />
            <mxPoint x="380" y="260" as="targetPoint" />
          </mxGeometry>
        </mxCell>
        <mxCell id="WFWKLnwmdb4rRaIEOqVZ-39" style="edgeStyle=orthogonalEdgeStyle;shape=connector;rounded=1;jumpStyle=none;orthogonalLoop=1;jettySize=auto;html=1;labelBackgroundColor=default;strokeColor=default;strokeWidth=2;fontFamily=Helvetica;fontSize=11;fontColor=default;endArrow=none;endFill=0;opacity=40;" parent="1" source="0Ak9JN9doW7q2pLoQ9mv-1" target="WFWKLnwmdb4rRaIEOqVZ-37" edge="1">
          <mxGeometry relative="1" as="geometry" />
        </mxCell>
        <mxCell id="0Ak9JN9doW7q2pLoQ9mv-1" value="lieferadresse&lt;br style=&quot;font-size: 13px;&quot;&gt;(LieferAdrID)" style="strokeWidth=2;html=1;shape=mxgraph.flowchart.start_1;whiteSpace=wrap;strokeColor=none;fontColor=#ffffff;fillColor=#002C82;fontFamily=Helvetica;fontSize=13;fontStyle=1" parent="1" vertex="1">
          <mxGeometry x="480" y="610" width="120" height="60" as="geometry" />
        </mxCell>
        <mxCell id="0Ak9JN9doW7q2pLoQ9mv-7" value="(AllgLieferAdrID)" style="edgeStyle=orthogonalEdgeStyle;shape=connector;rounded=1;jumpStyle=none;orthogonalLoop=1;jettySize=auto;html=1;labelBackgroundColor=default;strokeColor=default;fontFamily=Helvetica;fontSize=11;fontColor=default;endArrow=none;endFill=0;strokeWidth=2;opacity=40;" parent="1" source="0Ak9JN9doW7q2pLoQ9mv-2" target="0Ak9JN9doW7q2pLoQ9mv-1" edge="1">
          <mxGeometry x="-0.7257" y="-10" relative="1" as="geometry">
            <Array as="points">
              <mxPoint x="430" y="490" />
              <mxPoint x="430" y="640" />
            </Array>
            <mxPoint as="offset" />
          </mxGeometry>
        </mxCell>
        <mxCell id="WFWKLnwmdb4rRaIEOqVZ-49" style="edgeStyle=orthogonalEdgeStyle;shape=connector;rounded=1;jumpStyle=none;orthogonalLoop=1;jettySize=auto;html=1;labelBackgroundColor=default;strokeColor=default;strokeWidth=2;fontFamily=Helvetica;fontSize=11;fontColor=default;endArrow=none;endFill=0;opacity=40;" parent="1" source="0Ak9JN9doW7q2pLoQ9mv-2" target="4QULH8YT1BLBHV-vifYP-1" edge="1">
          <mxGeometry relative="1" as="geometry" />
        </mxCell>
        <mxCell id="0Ak9JN9doW7q2pLoQ9mv-2" value="bestellung_lieferadresse" style="verticalLabelPosition=middle;verticalAlign=middle;html=1;shape=hexagon;perimeter=hexagonPerimeter2;arcSize=6;size=0.16666666666666666;fillColor=#cce5ff;strokeColor=#36393d;strokeWidth=2;fontFamily=Helvetica;fontSize=11;fontColor=default;labelPosition=center;align=center;" parent="1" vertex="1">
          <mxGeometry x="240" y="460" width="160" height="40" as="geometry" />
        </mxCell>
        <mxCell id="0Ak9JN9doW7q2pLoQ9mv-3" value="" style="rounded=1;whiteSpace=wrap;html=1;strokeColor=#36393d;fillColor=#cce5ff;strokeWidth=2;fontSize=11;arcSize=24;" parent="1" vertex="1">
          <mxGeometry x="280" y="450" width="80" height="10" as="geometry" />
        </mxCell>
        <mxCell id="0Ak9JN9doW7q2pLoQ9mv-10" style="edgeStyle=orthogonalEdgeStyle;shape=connector;rounded=1;jumpStyle=none;orthogonalLoop=1;jettySize=auto;html=1;labelBackgroundColor=default;strokeColor=default;fontFamily=Helvetica;fontSize=11;fontColor=default;endArrow=none;endFill=0;" parent="1" source="0Ak9JN9doW7q2pLoQ9mv-9" target="0Ak9JN9doW7q2pLoQ9mv-1" edge="1">
          <mxGeometry relative="1" as="geometry" />
        </mxCell>
        <mxCell id="0Ak9JN9doW7q2pLoQ9mv-9" value="lieferadresse" style="rounded=1;whiteSpace=wrap;html=1;strokeColor=#36393d;fillColor=#FFF3A8;strokeWidth=2;" parent="1" vertex="1">
          <mxGeometry x="480" y="580" width="120" height="20" as="geometry" />
        </mxCell>
        <mxCell id="0Ak9JN9doW7q2pLoQ9mv-16" style="edgeStyle=orthogonalEdgeStyle;shape=connector;rounded=1;jumpStyle=none;orthogonalLoop=1;jettySize=auto;html=1;labelBackgroundColor=default;strokeColor=default;strokeWidth=2;fontFamily=Helvetica;fontSize=11;fontColor=default;endArrow=none;endFill=0;opacity=40;" parent="1" source="0Ak9JN9doW7q2pLoQ9mv-11" target="0Ak9JN9doW7q2pLoQ9mv-14" edge="1">
          <mxGeometry relative="1" as="geometry" />
        </mxCell>
        <mxCell id="0Ak9JN9doW7q2pLoQ9mv-19" style="edgeStyle=orthogonalEdgeStyle;shape=connector;rounded=1;jumpStyle=none;orthogonalLoop=1;jettySize=auto;html=1;labelBackgroundColor=default;strokeColor=default;strokeWidth=2;fontFamily=Helvetica;fontSize=11;fontColor=default;endArrow=none;endFill=0;opacity=40;" parent="1" source="0Ak9JN9doW7q2pLoQ9mv-11" target="0Ak9JN9doW7q2pLoQ9mv-18" edge="1">
          <mxGeometry relative="1" as="geometry">
            <Array as="points">
              <mxPoint x="210" y="640" />
              <mxPoint x="210" y="580" />
            </Array>
          </mxGeometry>
        </mxCell>
        <mxCell id="0Ak9JN9doW7q2pLoQ9mv-11" value="position&lt;br style=&quot;font-size: 13px;&quot;&gt;(BestellungID, PosId)" style="strokeWidth=2;html=1;shape=mxgraph.flowchart.start_1;whiteSpace=wrap;strokeColor=none;fontColor=#ffffff;fillColor=#002C82;fontFamily=Helvetica;fontSize=13;fontStyle=1" parent="1" vertex="1">
          <mxGeometry x="40" y="610" width="120" height="60" as="geometry" />
        </mxCell>
        <mxCell id="0Ak9JN9doW7q2pLoQ9mv-12" value="position" style="rounded=1;whiteSpace=wrap;html=1;strokeColor=#36393d;fillColor=#FFF3A8;strokeWidth=2;" parent="1" vertex="1">
          <mxGeometry x="40" y="580" width="120" height="20" as="geometry" />
        </mxCell>
        <mxCell id="0Ak9JN9doW7q2pLoQ9mv-13" style="rounded=1;orthogonalLoop=1;jettySize=auto;html=1;endArrow=none;endFill=0;jumpStyle=none;strokeWidth=1;" parent="1" source="0Ak9JN9doW7q2pLoQ9mv-12" target="0Ak9JN9doW7q2pLoQ9mv-11" edge="1">
          <mxGeometry relative="1" as="geometry">
            <mxPoint x="-180" y="310" as="sourcePoint" />
            <mxPoint x="-90" y="450" as="targetPoint" />
          </mxGeometry>
        </mxCell>
        <mxCell id="WFWKLnwmdb4rRaIEOqVZ-18" style="edgeStyle=orthogonalEdgeStyle;shape=connector;rounded=1;jumpStyle=none;orthogonalLoop=1;jettySize=auto;html=1;entryX=1;entryY=0.5;entryDx=0;entryDy=0;entryPerimeter=0;labelBackgroundColor=default;strokeColor=default;strokeWidth=2;fontFamily=Helvetica;fontSize=11;fontColor=default;endArrow=none;endFill=0;opacity=40;" parent="1" source="0Ak9JN9doW7q2pLoQ9mv-14" target="WFWKLnwmdb4rRaIEOqVZ-16" edge="1">
          <mxGeometry relative="1" as="geometry">
            <Array as="points">
              <mxPoint x="420" y="650" />
              <mxPoint x="420" y="770" />
            </Array>
          </mxGeometry>
        </mxCell>
        <mxCell id="0Ak9JN9doW7q2pLoQ9mv-14" value="position_produkt_&lt;br&gt;lieferadresse" style="verticalLabelPosition=middle;verticalAlign=middle;html=1;shape=hexagon;perimeter=hexagonPerimeter2;arcSize=6;size=0.16666666666666666;fillColor=#cce5ff;strokeColor=#36393d;strokeWidth=2;fontFamily=Helvetica;fontSize=11;fontColor=default;labelPosition=center;align=center;" parent="1" vertex="1">
          <mxGeometry x="240" y="620" width="160" height="40" as="geometry" />
        </mxCell>
        <mxCell id="0Ak9JN9doW7q2pLoQ9mv-15" value="" style="rounded=1;whiteSpace=wrap;html=1;strokeColor=#36393d;fillColor=#cce5ff;strokeWidth=2;fontSize=11;arcSize=24;" parent="1" vertex="1">
          <mxGeometry x="280" y="610" width="80" height="10" as="geometry" />
        </mxCell>
        <mxCell id="0Ak9JN9doW7q2pLoQ9mv-18" value="position_bestellung" style="verticalLabelPosition=middle;verticalAlign=middle;html=1;shape=hexagon;perimeter=hexagonPerimeter2;arcSize=6;size=0.16666666666666666;fillColor=#cce5ff;strokeColor=#36393d;strokeWidth=2;fontFamily=Helvetica;fontSize=11;fontColor=default;labelPosition=center;align=center;" parent="1" vertex="1">
          <mxGeometry x="240" y="560" width="160" height="40" as="geometry" />
        </mxCell>
        <mxCell id="WFWKLnwmdb4rRaIEOqVZ-40" style="edgeStyle=orthogonalEdgeStyle;shape=connector;rounded=1;jumpStyle=none;orthogonalLoop=1;jettySize=auto;html=1;entryX=1;entryY=0.5;entryDx=0;entryDy=0;labelBackgroundColor=default;strokeColor=default;strokeWidth=2;fontFamily=Helvetica;fontSize=11;fontColor=default;endArrow=none;endFill=0;opacity=40;" parent="1" source="0Ak9JN9doW7q2pLoQ9mv-23" target="WFWKLnwmdb4rRaIEOqVZ-37" edge="1">
          <mxGeometry relative="1" as="geometry">
            <Array as="points">
              <mxPoint x="870" y="480" />
              <mxPoint x="870" y="640" />
            </Array>
          </mxGeometry>
        </mxCell>
        <mxCell id="0Ak9JN9doW7q2pLoQ9mv-23" value="kunde&lt;br style=&quot;font-size: 13px;&quot;&gt;(KundeID)" style="strokeWidth=2;html=1;shape=mxgraph.flowchart.start_1;whiteSpace=wrap;strokeColor=none;fontColor=#ffffff;fillColor=#002C82;fontFamily=Helvetica;fontSize=13;fontStyle=1" parent="1" vertex="1">
          <mxGeometry x="920" y="450" width="120" height="60" as="geometry" />
        </mxCell>
        <mxCell id="0Ak9JN9doW7q2pLoQ9mv-30" style="edgeStyle=orthogonalEdgeStyle;shape=connector;rounded=1;jumpStyle=none;orthogonalLoop=1;jettySize=auto;html=1;labelBackgroundColor=default;strokeColor=default;strokeWidth=2;fontFamily=Helvetica;fontSize=11;fontColor=default;endArrow=none;endFill=0;opacity=40;" parent="1" source="0Ak9JN9doW7q2pLoQ9mv-27" target="0Ak9JN9doW7q2pLoQ9mv-23" edge="1">
          <mxGeometry relative="1" as="geometry" />
        </mxCell>
        <mxCell id="0Ak9JN9doW7q2pLoQ9mv-27" value="bestellung_kunde" style="verticalLabelPosition=middle;verticalAlign=middle;html=1;shape=hexagon;perimeter=hexagonPerimeter2;arcSize=6;size=0.16666666666666666;fillColor=#cce5ff;strokeColor=#36393d;strokeWidth=2;fontFamily=Helvetica;fontSize=11;fontColor=default;labelPosition=center;align=center;" parent="1" vertex="1">
          <mxGeometry x="680" y="460" width="160" height="40" as="geometry" />
        </mxCell>
        <mxCell id="0Ak9JN9doW7q2pLoQ9mv-28" value="" style="rounded=1;whiteSpace=wrap;html=1;strokeColor=#36393d;fillColor=#cce5ff;strokeWidth=2;fontSize=11;arcSize=24;" parent="1" vertex="1">
          <mxGeometry x="720" y="450" width="80" height="10" as="geometry" />
        </mxCell>
        <mxCell id="WFWKLnwmdb4rRaIEOqVZ-12" style="edgeStyle=orthogonalEdgeStyle;shape=connector;rounded=1;jumpStyle=none;orthogonalLoop=1;jettySize=auto;html=1;labelBackgroundColor=default;strokeColor=default;strokeWidth=2;fontFamily=Helvetica;fontSize=11;fontColor=default;endArrow=none;endFill=0;opacity=40;" parent="1" source="WFWKLnwmdb4rRaIEOqVZ-5" target="0Ak9JN9doW7q2pLoQ9mv-11" edge="1">
          <mxGeometry relative="1" as="geometry">
            <Array as="points">
              <mxPoint x="-10" y="550" />
              <mxPoint x="-10" y="640" />
            </Array>
          </mxGeometry>
        </mxCell>
        <mxCell id="WFWKLnwmdb4rRaIEOqVZ-13" style="edgeStyle=orthogonalEdgeStyle;shape=connector;rounded=1;jumpStyle=none;orthogonalLoop=1;jettySize=auto;html=1;entryX=1;entryY=0.5;entryDx=0;entryDy=0;entryPerimeter=0;labelBackgroundColor=default;strokeColor=default;strokeWidth=2;fontFamily=Helvetica;fontSize=11;fontColor=default;endArrow=none;endFill=0;opacity=40;" parent="1" source="WFWKLnwmdb4rRaIEOqVZ-5" target="0Ak9JN9doW7q2pLoQ9mv-1" edge="1">
          <mxGeometry relative="1" as="geometry">
            <Array as="points">
              <mxPoint x="430" y="535" />
              <mxPoint x="430" y="640" />
            </Array>
          </mxGeometry>
        </mxCell>
        <mxCell id="WFWKLnwmdb4rRaIEOqVZ-14" style="edgeStyle=orthogonalEdgeStyle;shape=connector;rounded=1;jumpStyle=none;orthogonalLoop=1;jettySize=auto;html=1;labelBackgroundColor=default;strokeColor=default;strokeWidth=2;fontFamily=Helvetica;fontSize=11;fontColor=default;endArrow=none;endFill=0;opacity=40;" parent="1" source="WFWKLnwmdb4rRaIEOqVZ-5" target="WFWKLnwmdb4rRaIEOqVZ-6" edge="1">
          <mxGeometry relative="1" as="geometry">
            <Array as="points">
              <mxPoint x="150" y="520" />
              <mxPoint x="150" y="360" />
            </Array>
          </mxGeometry>
        </mxCell>
        <mxCell id="WFWKLnwmdb4rRaIEOqVZ-5" value="position_lieferadresse_&lt;br&gt;lieferdienst" style="verticalLabelPosition=middle;verticalAlign=middle;html=1;shape=hexagon;perimeter=hexagonPerimeter2;arcSize=6;size=0.16666666666666666;fillColor=#cce5ff;strokeColor=#36393d;strokeWidth=2;fontFamily=Helvetica;fontSize=11;fontColor=default;labelPosition=center;align=center;" parent="1" vertex="1">
          <mxGeometry x="-200" y="515" width="160" height="40" as="geometry" />
        </mxCell>
        <mxCell id="WFWKLnwmdb4rRaIEOqVZ-6" value="lieferdienst&lt;br style=&quot;font-size: 13px;&quot;&gt;(lieferdienstID)" style="strokeWidth=2;html=1;shape=mxgraph.flowchart.start_1;whiteSpace=wrap;strokeColor=none;fontColor=#ffffff;fillColor=#002C82;fontFamily=Helvetica;fontSize=13;fontStyle=1" parent="1" vertex="1">
          <mxGeometry x="480" y="340" width="120" height="40" as="geometry" />
        </mxCell>
        <mxCell id="WFWKLnwmdb4rRaIEOqVZ-8" style="edgeStyle=orthogonalEdgeStyle;shape=connector;rounded=1;jumpStyle=none;orthogonalLoop=1;jettySize=auto;html=1;labelBackgroundColor=default;strokeColor=default;fontFamily=Helvetica;fontSize=11;fontColor=default;endArrow=none;endFill=0;" parent="1" source="WFWKLnwmdb4rRaIEOqVZ-7" target="WFWKLnwmdb4rRaIEOqVZ-6" edge="1">
          <mxGeometry relative="1" as="geometry" />
        </mxCell>
        <mxCell id="WFWKLnwmdb4rRaIEOqVZ-7" value="lieferdienst" style="rounded=1;whiteSpace=wrap;html=1;strokeColor=#36393d;fillColor=#FFF3A8;strokeWidth=2;" parent="1" vertex="1">
          <mxGeometry x="480" y="310" width="120" height="20" as="geometry" />
        </mxCell>
        <mxCell id="WFWKLnwmdb4rRaIEOqVZ-10" style="shape=connector;rounded=1;jumpStyle=none;orthogonalLoop=1;jettySize=auto;html=1;labelBackgroundColor=default;strokeColor=default;fontFamily=Helvetica;fontSize=11;fontColor=default;endArrow=none;endFill=0;" parent="1" source="WFWKLnwmdb4rRaIEOqVZ-9" target="WFWKLnwmdb4rRaIEOqVZ-5" edge="1">
          <mxGeometry relative="1" as="geometry" />
        </mxCell>
        <mxCell id="WFWKLnwmdb4rRaIEOqVZ-9" value="position_lieferadresse_&lt;br&gt;lieferdienst_lieferung" style="rounded=1;whiteSpace=wrap;html=1;strokeColor=#36393d;fillColor=#FFF3A8;strokeWidth=2;" parent="1" vertex="1">
          <mxGeometry x="-200" y="475" width="160" height="30" as="geometry" />
        </mxCell>
        <mxCell id="WFWKLnwmdb4rRaIEOqVZ-22" style="edgeStyle=orthogonalEdgeStyle;shape=connector;rounded=1;jumpStyle=none;orthogonalLoop=1;jettySize=auto;html=1;labelBackgroundColor=default;strokeColor=default;strokeWidth=2;fontFamily=Helvetica;fontSize=11;fontColor=default;endArrow=none;endFill=0;opacity=40;" parent="1" source="WFWKLnwmdb4rRaIEOqVZ-16" target="WFWKLnwmdb4rRaIEOqVZ-20" edge="1">
          <mxGeometry relative="1" as="geometry" />
        </mxCell>
        <mxCell id="WFWKLnwmdb4rRaIEOqVZ-16" value="produkt&lt;br style=&quot;font-size: 13px;&quot;&gt;(produktID)" style="strokeWidth=2;html=1;shape=mxgraph.flowchart.start_1;whiteSpace=wrap;strokeColor=none;fontColor=#ffffff;fillColor=#002C82;fontFamily=Helvetica;fontSize=13;fontStyle=1" parent="1" vertex="1">
          <mxGeometry x="480" y="750" width="120" height="40" as="geometry" />
        </mxCell>
        <mxCell id="WFWKLnwmdb4rRaIEOqVZ-19" style="edgeStyle=orthogonalEdgeStyle;shape=connector;rounded=1;jumpStyle=none;orthogonalLoop=1;jettySize=auto;html=1;labelBackgroundColor=default;strokeColor=default;fontFamily=Helvetica;fontSize=11;fontColor=default;endArrow=none;endFill=0;" parent="1" source="WFWKLnwmdb4rRaIEOqVZ-17" target="WFWKLnwmdb4rRaIEOqVZ-16" edge="1">
          <mxGeometry relative="1" as="geometry">
            <Array as="points">
              <mxPoint x="540" y="730" />
            </Array>
          </mxGeometry>
        </mxCell>
        <mxCell id="WFWKLnwmdb4rRaIEOqVZ-17" value="produkt_p1" style="rounded=1;whiteSpace=wrap;html=1;strokeColor=#36393d;fillColor=#FFF3A8;strokeWidth=2;" parent="1" vertex="1">
          <mxGeometry x="550" y="720" width="90" height="20" as="geometry" />
        </mxCell>
        <mxCell id="WFWKLnwmdb4rRaIEOqVZ-24" style="edgeStyle=orthogonalEdgeStyle;shape=connector;rounded=1;jumpStyle=none;orthogonalLoop=1;jettySize=auto;html=1;labelBackgroundColor=default;strokeColor=default;strokeWidth=2;fontFamily=Helvetica;fontSize=11;fontColor=default;endArrow=none;endFill=0;opacity=40;" parent="1" source="WFWKLnwmdb4rRaIEOqVZ-20" target="WFWKLnwmdb4rRaIEOqVZ-23" edge="1">
          <mxGeometry relative="1" as="geometry" />
        </mxCell>
        <mxCell id="WFWKLnwmdb4rRaIEOqVZ-20" value="produkt_kategorie" style="verticalLabelPosition=middle;verticalAlign=middle;html=1;shape=hexagon;perimeter=hexagonPerimeter2;arcSize=6;size=0.16666666666666666;fillColor=#cce5ff;strokeColor=#36393d;strokeWidth=2;fontFamily=Helvetica;fontSize=11;fontColor=default;labelPosition=center;align=center;" parent="1" vertex="1">
          <mxGeometry x="680" y="750" width="160" height="40" as="geometry" />
        </mxCell>
        <mxCell id="WFWKLnwmdb4rRaIEOqVZ-21" value="" style="rounded=1;whiteSpace=wrap;html=1;strokeColor=#36393d;fillColor=#cce5ff;strokeWidth=2;fontSize=11;arcSize=24;" parent="1" vertex="1">
          <mxGeometry x="720" y="740" width="80" height="10" as="geometry" />
        </mxCell>
        <mxCell id="WFWKLnwmdb4rRaIEOqVZ-23" value="kategorie&lt;br style=&quot;font-size: 13px;&quot;&gt;(KatID)" style="strokeWidth=2;html=1;shape=mxgraph.flowchart.start_1;whiteSpace=wrap;strokeColor=none;fontColor=#ffffff;fillColor=#002C82;fontFamily=Helvetica;fontSize=13;fontStyle=1" parent="1" vertex="1">
          <mxGeometry x="920" y="750" width="120" height="40" as="geometry" />
        </mxCell>
        <mxCell id="WFWKLnwmdb4rRaIEOqVZ-34" style="edgeStyle=none;shape=connector;rounded=1;jumpStyle=none;orthogonalLoop=1;jettySize=auto;html=1;labelBackgroundColor=default;strokeColor=default;strokeWidth=1;fontFamily=Helvetica;fontSize=11;fontColor=default;endArrow=none;endFill=0;" parent="1" source="WFWKLnwmdb4rRaIEOqVZ-25" target="WFWKLnwmdb4rRaIEOqVZ-23" edge="1">
          <mxGeometry relative="1" as="geometry" />
        </mxCell>
        <mxCell id="WFWKLnwmdb4rRaIEOqVZ-25" value="kategorie" style="rounded=1;whiteSpace=wrap;html=1;strokeColor=#36393d;fillColor=#FFF3A8;strokeWidth=2;" parent="1" vertex="1">
          <mxGeometry x="920" y="720" width="120" height="20" as="geometry" />
        </mxCell>
        <mxCell id="WFWKLnwmdb4rRaIEOqVZ-29" value="" style="edgeStyle=orthogonalEdgeStyle;shape=connector;rounded=1;jumpStyle=none;orthogonalLoop=1;jettySize=auto;html=1;labelBackgroundColor=default;strokeColor=default;strokeWidth=2;fontFamily=Helvetica;fontSize=11;fontColor=default;endArrow=none;endFill=0;opacity=40;entryX=1;entryY=0.5;entryDx=0;entryDy=0;entryPerimeter=0;" parent="1" source="WFWKLnwmdb4rRaIEOqVZ-26" target="WFWKLnwmdb4rRaIEOqVZ-23" edge="1">
          <mxGeometry relative="1" as="geometry">
            <mxPoint x="970" y="725" as="targetPoint" />
            <Array as="points">
              <mxPoint x="1080" y="740" />
              <mxPoint x="1080" y="770" />
            </Array>
          </mxGeometry>
        </mxCell>
        <mxCell id="WFWKLnwmdb4rRaIEOqVZ-30" style="edgeStyle=orthogonalEdgeStyle;shape=connector;rounded=1;jumpStyle=none;orthogonalLoop=1;jettySize=auto;html=1;labelBackgroundColor=default;strokeColor=default;strokeWidth=2;fontFamily=Helvetica;fontSize=11;fontColor=default;endArrow=none;endFill=0;opacity=40;" parent="1" source="WFWKLnwmdb4rRaIEOqVZ-26" target="WFWKLnwmdb4rRaIEOqVZ-23" edge="1">
          <mxGeometry relative="1" as="geometry">
            <mxPoint x="1260" y="735" as="sourcePoint" />
            <mxPoint x="1020" y="720" as="targetPoint" />
            <Array as="points">
              <mxPoint x="1080" y="779" />
              <mxPoint x="1080" y="770" />
            </Array>
          </mxGeometry>
        </mxCell>
        <mxCell id="WFWKLnwmdb4rRaIEOqVZ-33" value="ober-&lt;br&gt;kategorie" style="edgeLabel;html=1;align=center;verticalAlign=middle;resizable=0;points=[];fontSize=11;fontFamily=Helvetica;fontColor=default;labelBackgroundColor=none;" parent="WFWKLnwmdb4rRaIEOqVZ-30" vertex="1" connectable="0">
          <mxGeometry x="0.0059" relative="1" as="geometry">
            <mxPoint x="29" as="offset" />
          </mxGeometry>
        </mxCell>
        <mxCell id="WFWKLnwmdb4rRaIEOqVZ-26" value="kategorie_oberkategorie" style="verticalLabelPosition=middle;verticalAlign=middle;html=1;shape=hexagon;perimeter=hexagonPerimeter2;arcSize=6;size=0.16666666666666666;fillColor=#cce5ff;strokeColor=#36393d;strokeWidth=2;fontFamily=Helvetica;fontSize=11;fontColor=default;labelPosition=center;align=center;" parent="1" vertex="1">
          <mxGeometry x="1120" y="730" width="160" height="60" as="geometry" />
        </mxCell>
        <mxCell id="WFWKLnwmdb4rRaIEOqVZ-27" value="" style="rounded=1;whiteSpace=wrap;html=1;strokeColor=#36393d;fillColor=#cce5ff;strokeWidth=2;fontSize=11;arcSize=24;" parent="1" vertex="1">
          <mxGeometry x="1160" y="720" width="80" height="10" as="geometry" />
        </mxCell>
        <mxCell id="WFWKLnwmdb4rRaIEOqVZ-36" value="" style="rounded=1;whiteSpace=wrap;html=1;strokeColor=#36393d;fillColor=#cce5ff;strokeWidth=2;fontSize=11;arcSize=24;" parent="1" vertex="1">
          <mxGeometry x="720" y="610" width="80" height="10" as="geometry" />
        </mxCell>
        <mxCell id="WFWKLnwmdb4rRaIEOqVZ-37" value="lieferadresse_kunde" style="verticalLabelPosition=middle;verticalAlign=middle;html=1;shape=hexagon;perimeter=hexagonPerimeter2;arcSize=6;size=0.16666666666666666;fillColor=#cce5ff;strokeColor=#36393d;strokeWidth=2;fontFamily=Helvetica;fontSize=11;fontColor=default;labelPosition=center;align=center;" parent="1" vertex="1">
          <mxGeometry x="680" y="620" width="160" height="40" as="geometry" />
        </mxCell>
        <mxCell id="WFWKLnwmdb4rRaIEOqVZ-48" style="edgeStyle=orthogonalEdgeStyle;shape=connector;rounded=1;jumpStyle=none;orthogonalLoop=1;jettySize=auto;html=1;labelBackgroundColor=default;strokeColor=default;fontFamily=Helvetica;fontSize=11;fontColor=default;endArrow=none;endFill=0;" parent="1" source="WFWKLnwmdb4rRaIEOqVZ-42" target="0Ak9JN9doW7q2pLoQ9mv-23" edge="1">
          <mxGeometry relative="1" as="geometry">
            <Array as="points">
              <mxPoint x="980" y="430" />
            </Array>
          </mxGeometry>
        </mxCell>
        <mxCell id="WFWKLnwmdb4rRaIEOqVZ-42" value="kunde" style="rounded=1;whiteSpace=wrap;html=1;strokeColor=#36393d;fillColor=#FFF3A8;strokeWidth=2;" parent="1" vertex="1">
          <mxGeometry x="880" y="420" width="60" height="20" as="geometry" />
        </mxCell>
        <mxCell id="04NFRgAmzPecM27d5ohU-1" style="edgeStyle=orthogonalEdgeStyle;shape=connector;rounded=1;jumpStyle=none;orthogonalLoop=1;jettySize=auto;html=1;labelBackgroundColor=default;strokeColor=default;fontFamily=Helvetica;fontSize=11;fontColor=default;endArrow=none;endFill=0;" edge="1" parent="1" source="WFWKLnwmdb4rRaIEOqVZ-46" target="0Ak9JN9doW7q2pLoQ9mv-23">
          <mxGeometry relative="1" as="geometry">
            <Array as="points">
              <mxPoint x="980" y="350" />
            </Array>
          </mxGeometry>
        </mxCell>
        <mxCell id="WFWKLnwmdb4rRaIEOqVZ-46" value="Wohnort" style="rounded=1;whiteSpace=wrap;html=1;strokeColor=#36393d;fillColor=#FFCF5E;strokeWidth=2;" parent="1" vertex="1">
          <mxGeometry x="880" y="340" width="60" height="20" as="geometry" />
        </mxCell>
        <mxCell id="WFWKLnwmdb4rRaIEOqVZ-65" style="edgeStyle=orthogonalEdgeStyle;shape=connector;rounded=1;jumpStyle=none;orthogonalLoop=1;jettySize=auto;html=1;labelBackgroundColor=default;strokeColor=default;strokeWidth=2;fontFamily=Helvetica;fontSize=11;fontColor=default;endArrow=none;endFill=0;opacity=40;" parent="1" source="WFWKLnwmdb4rRaIEOqVZ-50" target="WFWKLnwmdb4rRaIEOqVZ-63" edge="1">
          <mxGeometry relative="1" as="geometry" />
        </mxCell>
        <mxCell id="WFWKLnwmdb4rRaIEOqVZ-50" value="vereinspartner&lt;br style=&quot;font-size: 13px;&quot;&gt;(VereinspartnerID)" style="strokeWidth=2;html=1;shape=mxgraph.flowchart.start_1;whiteSpace=wrap;strokeColor=none;fontColor=#ffffff;fillColor=#002C82;fontFamily=Helvetica;fontSize=13;fontStyle=1" parent="1" vertex="1">
          <mxGeometry x="1360" y="310" width="120" height="60" as="geometry" />
        </mxCell>
        <mxCell id="WFWKLnwmdb4rRaIEOqVZ-51" style="edgeStyle=none;shape=connector;rounded=1;jumpStyle=none;orthogonalLoop=1;jettySize=auto;html=1;labelBackgroundColor=default;strokeColor=default;fontFamily=Helvetica;fontSize=11;fontColor=default;endArrow=none;endFill=0;" parent="1" source="WFWKLnwmdb4rRaIEOqVZ-52" target="WFWKLnwmdb4rRaIEOqVZ-50" edge="1">
          <mxGeometry relative="1" as="geometry" />
        </mxCell>
        <mxCell id="WFWKLnwmdb4rRaIEOqVZ-52" value="Vereinspartner" style="rounded=1;whiteSpace=wrap;html=1;strokeColor=#36393d;fillColor=#FFF3A8;strokeWidth=2;" parent="1" vertex="1">
          <mxGeometry x="1360" y="280" width="120" height="20" as="geometry" />
        </mxCell>
        <mxCell id="WFWKLnwmdb4rRaIEOqVZ-59" style="edgeStyle=orthogonalEdgeStyle;shape=connector;rounded=1;jumpStyle=none;orthogonalLoop=1;jettySize=auto;html=1;labelBackgroundColor=default;strokeColor=default;strokeWidth=2;fontFamily=Helvetica;fontSize=11;fontColor=default;endArrow=none;endFill=0;opacity=40;" parent="1" source="WFWKLnwmdb4rRaIEOqVZ-56" target="0Ak9JN9doW7q2pLoQ9mv-23" edge="1">
          <mxGeometry relative="1" as="geometry" />
        </mxCell>
        <mxCell id="WFWKLnwmdb4rRaIEOqVZ-60" style="edgeStyle=orthogonalEdgeStyle;shape=connector;rounded=1;jumpStyle=none;orthogonalLoop=1;jettySize=auto;html=1;labelBackgroundColor=default;strokeColor=default;strokeWidth=2;fontFamily=Helvetica;fontSize=11;fontColor=default;endArrow=none;endFill=0;opacity=40;" parent="1" source="WFWKLnwmdb4rRaIEOqVZ-56" target="WFWKLnwmdb4rRaIEOqVZ-50" edge="1">
          <mxGeometry relative="1" as="geometry">
            <Array as="points">
              <mxPoint x="1330" y="480" />
              <mxPoint x="1330" y="340" />
            </Array>
          </mxGeometry>
        </mxCell>
        <mxCell id="WFWKLnwmdb4rRaIEOqVZ-56" value="kunde_vereinspartner" style="verticalLabelPosition=middle;verticalAlign=middle;html=1;shape=hexagon;perimeter=hexagonPerimeter2;arcSize=6;size=0.16666666666666666;fillColor=#cce5ff;strokeColor=#36393d;strokeWidth=2;fontFamily=Helvetica;fontSize=11;fontColor=default;labelPosition=center;align=center;" parent="1" vertex="1">
          <mxGeometry x="1120" y="460" width="160" height="40" as="geometry" />
        </mxCell>
        <mxCell id="WFWKLnwmdb4rRaIEOqVZ-57" value="" style="rounded=1;whiteSpace=wrap;html=1;strokeColor=#36393d;fillColor=#cce5ff;strokeWidth=2;fontSize=11;arcSize=24;" parent="1" vertex="1">
          <mxGeometry x="1160" y="450" width="80" height="10" as="geometry" />
        </mxCell>
        <mxCell id="WFWKLnwmdb4rRaIEOqVZ-63" value="vereinspartner_kunde" style="verticalLabelPosition=middle;verticalAlign=middle;html=1;shape=hexagon;perimeter=hexagonPerimeter2;arcSize=6;size=0.16666666666666666;fillColor=#cce5ff;strokeColor=#36393d;strokeWidth=2;fontFamily=Helvetica;fontSize=11;fontColor=default;labelPosition=center;align=center;" parent="1" vertex="1">
          <mxGeometry x="1120" y="320" width="160" height="40" as="geometry" />
        </mxCell>
        <mxCell id="WFWKLnwmdb4rRaIEOqVZ-64" value="" style="rounded=1;whiteSpace=wrap;html=1;strokeColor=#36393d;fillColor=#cce5ff;strokeWidth=2;fontSize=11;arcSize=24;" parent="1" vertex="1">
          <mxGeometry x="1160" y="310" width="80" height="10" as="geometry" />
        </mxCell>
        <mxCell id="WFWKLnwmdb4rRaIEOqVZ-66" style="edgeStyle=orthogonalEdgeStyle;shape=connector;rounded=1;jumpStyle=none;orthogonalLoop=1;jettySize=auto;html=1;entryX=1;entryY=0.5;entryDx=0;entryDy=0;entryPerimeter=0;labelBackgroundColor=default;strokeColor=default;strokeWidth=2;fontFamily=Helvetica;fontSize=11;fontColor=default;endArrow=none;endFill=0;opacity=40;" parent="1" source="WFWKLnwmdb4rRaIEOqVZ-63" target="0Ak9JN9doW7q2pLoQ9mv-23" edge="1">
          <mxGeometry relative="1" as="geometry" />
        </mxCell>
        <mxCell id="WFWKLnwmdb4rRaIEOqVZ-68" value="(kundeIDVerein)" style="edgeLabel;html=1;align=center;verticalAlign=middle;resizable=0;points=[];fontSize=11;fontFamily=Helvetica;fontColor=default;" parent="WFWKLnwmdb4rRaIEOqVZ-66" vertex="1" connectable="0">
          <mxGeometry x="-0.3943" y="-4" relative="1" as="geometry">
            <mxPoint x="14" y="-47" as="offset" />
          </mxGeometry>
        </mxCell>
        <mxCell id="ZpM2CDvKO9FQDy_-CSvz-3" style="edgeStyle=orthogonalEdgeStyle;shape=connector;rounded=1;jumpStyle=none;orthogonalLoop=1;jettySize=auto;html=1;labelBackgroundColor=default;strokeColor=default;fontFamily=Helvetica;fontSize=11;fontColor=default;endArrow=none;endFill=0;" parent="1" source="ZpM2CDvKO9FQDy_-CSvz-2" target="WFWKLnwmdb4rRaIEOqVZ-16" edge="1">
          <mxGeometry relative="1" as="geometry">
            <Array as="points">
              <mxPoint x="540" y="710" />
            </Array>
          </mxGeometry>
        </mxCell>
        <mxCell id="ZpM2CDvKO9FQDy_-CSvz-2" value="produkt_p1s" style="rounded=1;whiteSpace=wrap;html=1;strokeColor=#36393d;fillColor=#FFF3A8;strokeWidth=2;" parent="1" vertex="1">
          <mxGeometry x="550" y="700" width="90" height="20" as="geometry" />
        </mxCell>
        <mxCell id="04NFRgAmzPecM27d5ohU-2" value="" style="edgeStyle=orthogonalEdgeStyle;shape=connector;rounded=1;jumpStyle=none;orthogonalLoop=1;jettySize=auto;html=1;labelBackgroundColor=default;strokeColor=default;strokeWidth=2;fontFamily=Helvetica;fontSize=11;fontColor=default;endArrow=none;endFill=0;opacity=40;" edge="1" parent="1" source="0Ak9JN9doW7q2pLoQ9mv-18" target="4QULH8YT1BLBHV-vifYP-1">
          <mxGeometry relative="1" as="geometry">
            <Array as="points">
              <mxPoint x="450" y="580" />
              <mxPoint x="450" y="480" />
            </Array>
            <mxPoint x="393" y="575" as="sourcePoint" />
            <mxPoint x="480" y="480" as="targetPoint" />
          </mxGeometry>
        </mxCell>
        <mxCell id="0Ak9JN9doW7q2pLoQ9mv-17" value="(spezLieferAdrID)" style="edgeStyle=orthogonalEdgeStyle;shape=connector;rounded=1;jumpStyle=none;orthogonalLoop=1;jettySize=auto;html=1;labelBackgroundColor=none;strokeColor=default;strokeWidth=2;fontFamily=Helvetica;fontSize=11;fontColor=default;endArrow=none;endFill=0;opacity=40;" parent="1" source="0Ak9JN9doW7q2pLoQ9mv-14" target="0Ak9JN9doW7q2pLoQ9mv-1" edge="1">
          <mxGeometry x="-0.75" y="10" relative="1" as="geometry">
            <mxPoint as="offset" />
          </mxGeometry>
        </mxCell>
      </root>
    </mxGraphModel>
  </diagram>
</mxfile>
